<svg width="100%" height="100%" viewBox="0 0 402 149" fill="none" xmlns="http://www.w3.org/2000/svg">
<g clip-path="url(#clip0)">
<path d="M155.375 58.4848C155.375 46.1742 155.375 34.0808 155.375 21.8896C160.61 21.8896 165.653 21.8896 170.823 21.8896C170.823 49.7893 170.823 77.6163 170.823 105.563C165.728 105.563 160.682 105.563 155.375 105.563C155.375 104.061 155.375 102.542 155.375 100.837C154.942 101.051 154.766 101.09 154.652 101.199C148.858 106.645 141.954 108.013 134.516 106.185C124.708 103.779 118.806 97.0555 116.382 87.3973C113.922 77.5983 115.576 68.4651 122.212 60.5943C129.191 52.3151 141.502 49.9701 150.702 55.1628C152.238 56.0277 153.606 57.211 155.375 58.4848ZM155.887 80.3736C155.898 77.6997 155.568 75.6694 154.766 73.7735C152.883 69.319 149.574 66.5979 144.768 66.0729C140.235 65.5773 136.375 67.1006 133.639 70.8606C130.416 75.2896 130.04 80.2074 131.877 85.2771C134.412 92.2717 142.43 95.4093 148.979 91.9822C153.85 89.4384 155.64 85.0309 155.887 80.3736Z" fill="url(#paint0_radial)"/>
<path d="M89.4249 58.4287C89.4249 56.8362 89.4249 55.3709 89.4249 53.7749C94.6745 53.7749 99.7129 53.7749 104.755 53.7749C105.152 55.0342 105.338 101.298 104.937 105.597C99.8776 105.8 94.7891 105.626 89.5074 105.695C89.5074 104.034 89.5074 102.551 89.5074 100.712C88.8698 101.215 88.508 101.468 88.1822 101.762C84.7052 104.888 80.5904 106.466 75.9963 106.809C63.4486 107.74 54.2812 99.4711 51.1802 89.7405C47.8069 79.1489 49.1282 69.2191 56.3977 60.5417C63.3086 52.2986 75.5844 49.9936 84.7338 55.1139C86.3235 56.0004 87.7273 57.2164 89.4249 58.4287ZM64.7198 79.728C64.7198 81.2158 65.3645 83.5346 66.0376 85.304C67.8209 89.9684 71.2552 92.7477 76.2111 93.2468C81.0488 93.7356 84.9736 91.9224 87.7238 87.7901C91.097 82.7204 90.7032 75.0815 86.8644 70.359C82.1804 64.5909 73.092 64.5006 68.2828 70.1673C65.9622 72.9032 64.7198 76.111 64.7198 79.728Z" fill="url(#paint1_radial)"/>
<path d="M329.134 93.0726C335.429 93.0726 341.378 93.0726 347.443 93.0726C347.443 97.2809 347.443 101.352 347.443 105.553C330.086 105.553 312.754 105.553 295.423 105.553C295.014 104.272 294.936 95.1746 295.357 93.0436C301.309 93.0436 307.304 93.0436 313.41 93.0436C313.41 73.4596 313.41 54.0782 313.41 34.4905C307.369 34.4905 301.375 34.4905 295.441 34.4905C295.035 32.9997 294.932 24.5466 295.236 22.0968C296.494 21.7168 326.996 21.6372 329.134 22.0497C329.134 45.6069 329.134 69.2112 329.134 93.0726Z" fill="url(#paint2_radial)"/>
<path d="M364.12 83.6858C364.448 87.4852 366.088 90.2899 368.923 92.2327C373.391 95.2979 378.226 95.3051 383.099 93.3002C384.982 92.5259 386.262 90.9879 387.168 89.1317C391.735 89.1317 396.249 89.1317 401.073 89.1317C400.54 90.655 400.202 92.0625 399.585 93.3328C396.813 99.083 392.352 103.056 386.442 105.195C379.439 107.731 372.333 107.572 365.422 104.862C357.724 101.844 352.893 96.0687 350.716 88.046C349.08 82.0138 349.158 76.0106 351.268 70.087C354.966 59.6943 364.685 52.6596 375.609 52.4498C382.182 52.3231 388.113 54.0781 393.103 58.5544C397.462 62.466 399.919 67.4744 401.171 73.1447C401.915 76.5134 402.183 79.9222 401.87 83.617C399.369 83.751 396.89 83.6639 394.411 83.6822C391.908 83.6965 389.401 83.6858 386.893 83.6858C384.39 83.6858 381.879 83.6858 379.375 83.6858C376.868 83.6858 374.361 83.6858 371.854 83.6858C369.36 83.6858 366.86 83.6858 364.12 83.6858ZM386.858 73.8395C386.858 73.5356 386.907 73.293 386.851 73.0795C386.121 70.268 384.622 67.9883 382.02 66.6671C377.866 64.5612 373.698 64.7278 369.734 67.1487C367.273 68.6505 365.615 70.89 364.702 73.8431C372.167 73.8395 379.474 73.8395 386.858 73.8395Z" fill="url(#paint3_radial)"/>
<path d="M291.912 73.2787C286.666 73.2787 281.549 73.2787 276.396 73.2787C276.257 73.0651 276.088 72.8806 276.01 72.667C274.012 67.2573 267.623 64.3806 261.349 67.1777C257.858 68.7336 255.684 71.5311 254.709 75.2291C253.378 80.3027 253.969 85.0682 257.398 89.1826C261.678 94.3139 269.729 94.607 274.048 89.8014C274.989 88.7519 275.626 87.4239 276.511 86.0669C281.488 86.0669 286.652 86.0669 292.013 86.0669C291.946 86.6495 291.937 87.1709 291.82 87.6701C290.051 95.0593 285.578 100.314 279.039 103.798C267.977 109.696 253.821 107.052 245.479 97.6357C234.109 84.8041 237.429 64.5762 252.293 56.1229C263.541 49.7252 277.481 51.7191 286.161 60.9757C289.02 64.0226 290.875 67.612 291.834 71.6866C291.901 71.9797 291.96 72.2764 291.988 72.5767C292.006 72.7433 291.956 72.9207 291.912 73.2787Z" fill="url(#paint4_radial)"/>
<path d="M201.537 66.2432C195.503 66.2432 189.555 66.2432 183.479 66.2432C183.479 62.0381 183.479 57.971 183.479 53.7697C194.701 53.7697 205.892 53.7697 217.318 53.7697C217.343 54.4354 217.398 55.1338 217.398 55.8286C217.402 67.4662 217.402 79.1034 217.402 90.741C217.402 91.443 217.402 92.1449 217.402 92.9809C223.592 92.9809 229.54 92.9809 235.442 92.9809C235.897 94.3344 236.004 103.171 235.622 105.563C218.311 105.563 200.979 105.563 183.659 105.563C183.289 104.228 183.175 96.0024 183.504 93.1038C185.463 92.9519 187.473 93.0533 189.473 93.0354C191.443 93.0171 193.412 93.0318 195.383 93.0318C197.405 93.0318 199.433 93.0318 201.423 93.0318C201.865 91.7146 201.975 68.6856 201.537 66.2432Z" fill="url(#paint5_radial)"/>
<path d="M41.6504 53.7635C41.6504 57.9574 41.6504 61.9815 41.6504 66.2625C38.7567 66.3131 35.9169 66.2805 33.0809 66.284C30.1589 66.2912 27.2367 66.284 24.3148 66.284C21.4643 66.284 18.6138 66.284 15.5629 66.284C15.5629 79.427 15.5629 92.4105 15.5629 105.336C14.0947 105.756 2.08412 105.832 0 105.474C0 88.2925 0 71.0896 0 53.7635C13.8655 53.7635 27.6629 53.7635 41.6504 53.7635Z" fill="url(#paint6_radial)"/>
<path d="M208.075 41.4347C202.306 41.4456 197.804 36.9512 197.815 31.1976C197.825 25.549 202.299 21.0474 207.948 21.0004C213.711 20.9533 218.258 25.426 218.283 31.1614C218.311 36.944 213.857 41.4239 208.075 41.4347Z" fill="url(#paint7_radial)"/>
</g>
<path d="M1.05682 137H2.11364V133.097H5.89773V132.159H2.11364V129.21H6.28977V128.273H1.05682V137ZM50.9834 132.636C50.9834 129.875 49.3641 128.153 47.1312 128.153C44.8982 128.153 43.2789 129.875 43.2789 132.636C43.2789 135.398 44.8982 137.119 47.1312 137.119C49.3641 137.119 50.9834 135.398 50.9834 132.636ZM49.9607 132.636C49.9607 134.903 48.7164 136.131 47.1312 136.131C45.5459 136.131 44.3016 134.903 44.3016 132.636C44.3016 130.369 45.5459 129.142 47.1312 129.142C48.7164 129.142 49.9607 130.369 49.9607 132.636ZM94.0077 128.273V133.966C94.0077 135.244 93.1298 136.165 91.6725 136.165C90.2151 136.165 89.3372 135.244 89.3372 133.966V128.273H88.2804V134.051C88.2804 135.841 89.6185 137.153 91.6725 137.153C93.7264 137.153 95.0645 135.841 95.0645 134.051V128.273H94.0077ZM139.615 128.273H138.576V135.142H138.49L133.718 128.273H132.695V137H133.752V130.148H133.837L138.593 137H139.615V128.273ZM179.943 137C182.602 137 184.102 135.347 184.102 132.619C184.102 129.909 182.602 128.273 180.063 128.273H177.25V137H179.943ZM178.307 136.062V129.21H179.994C182.04 129.21 183.08 130.506 183.08 132.619C183.08 134.75 182.04 136.062 179.875 136.062H178.307ZM221.343 137L222.221 134.528H225.749L226.627 137H227.735L224.53 128.273H223.439L220.235 137H221.343ZM222.553 133.591L223.951 129.653H224.019L225.417 133.591H222.553ZM263.118 129.21H265.862V137H266.919V129.21H269.663V128.273H263.118V129.21ZM307.871 128.273H306.814V137H307.871V128.273ZM352.873 132.636C352.873 129.875 351.254 128.153 349.021 128.153C346.788 128.153 345.169 129.875 345.169 132.636C345.169 135.398 346.788 137.119 349.021 137.119C351.254 137.119 352.873 135.398 352.873 132.636ZM351.851 132.636C351.851 134.903 350.606 136.131 349.021 136.131C347.436 136.131 346.192 134.903 346.192 132.636C346.192 130.369 347.436 129.142 349.021 129.142C350.606 129.142 351.851 130.369 351.851 132.636ZM397.091 128.273H396.051V135.142H395.966L391.193 128.273H390.17V137H391.227V130.148H391.312L396.068 137H397.091V128.273Z" fill="#5555FF" fill-opacity="0.84"/>
<defs>
<radialGradient id="paint0_radial" cx="0" cy="0" r="1" gradientUnits="userSpaceOnUse" gradientTransform="translate(143 22) rotate(90) scale(177 115.535)">
<stop stop-color="#5555FF"/>
<stop offset="1" stop-color="#5555FF" stop-opacity="0"/>
</radialGradient>
<radialGradient id="paint1_radial" cx="0" cy="0" r="1" gradientUnits="userSpaceOnUse" gradientTransform="translate(77 52) rotate(90) scale(93 95.1591)">
<stop stop-color="#5555FF"/>
<stop offset="1" stop-color="#5555FF" stop-opacity="0"/>
</radialGradient>
<radialGradient id="paint2_radial" cx="0" cy="0" r="1" gradientUnits="userSpaceOnUse" gradientTransform="translate(321 22) rotate(90) scale(179 111.92)">
<stop stop-color="#5555FF"/>
<stop offset="1" stop-color="#5555FF" stop-opacity="0"/>
</radialGradient>
<radialGradient id="paint3_radial" cx="0" cy="0" r="1" gradientUnits="userSpaceOnUse" gradientTransform="translate(376 56) rotate(90) scale(95 91.282)">
<stop stop-color="#5555FF"/>
<stop offset="1" stop-color="#5555FF" stop-opacity="0"/>
</radialGradient>
<radialGradient id="paint4_radial" cx="0" cy="0" r="1" gradientUnits="userSpaceOnUse" gradientTransform="translate(265 52) rotate(90) scale(93 90.952)">
<stop stop-color="#5555FF"/>
<stop offset="1" stop-color="#5555FF" stop-opacity="0"/>
</radialGradient>
<radialGradient id="paint5_radial" cx="0" cy="0" r="1" gradientUnits="userSpaceOnUse" gradientTransform="translate(210 54) rotate(90) scale(94.5 95.8718)">
<stop stop-color="#5555FF"/>
<stop offset="1" stop-color="#5555FF" stop-opacity="0"/>
</radialGradient>
<radialGradient id="paint6_radial" cx="0" cy="0" r="1" gradientUnits="userSpaceOnUse" gradientTransform="translate(21 54) rotate(90) scale(93 127.038)">
<stop stop-color="#5555FF"/>
<stop offset="1" stop-color="#5555FF" stop-opacity="0"/>
</radialGradient>
<radialGradient id="paint7_radial" cx="0" cy="0" r="1" gradientUnits="userSpaceOnUse" gradientTransform="translate(208 21) rotate(90) scale(55.5 55.5913)">
<stop stop-color="#5555FF"/>
<stop offset="1" stop-color="#5555FF" stop-opacity="0"/>
</radialGradient>
<clipPath id="clip0">
<rect width="402" height="86" fill="white" transform="translate(0 21)"/>
</clipPath>
</defs>
</svg>
