<svg width="220" height="79" viewBox="0 0 220 79" fill="none" xmlns="http://www.w3.org/2000/svg">
<path d="M63.4766 13.9129V1.25839H68.893V30.1924H63.4766V28.5582C63.3247 28.6321 63.2631 28.6458 63.2229 28.6834C61.1915 30.5666 58.7708 31.0396 56.163 30.4077C52.7241 29.5755 50.6549 27.2506 49.8049 23.9108C48.9424 20.5223 49.5224 17.364 51.8489 14.6424C54.296 11.7794 58.6126 10.9685 61.8381 12.7642C62.3767 13.0633 62.8563 13.4724 63.4766 13.9129ZM63.6561 21.482C63.6599 20.5573 63.5444 19.8553 63.2631 19.1997C62.6027 17.6593 61.4426 16.7183 59.7576 16.5369C58.1681 16.3655 56.8147 16.8922 55.8554 18.1924C54.7254 19.7239 54.5936 21.4245 55.2377 23.1776C56.1266 25.5964 58.9377 26.6812 61.2341 25.4962C62.9417 24.6166 63.5695 23.0925 63.6561 21.482Z" />
<path d="M40.3539 13.893V12.2838H45.7288L45.7928 30.2039L40.3827 30.2376C40.3827 30.2376 40.3827 29.1503 40.3827 28.5146C38.9391 29.6378 37.5336 30.4837 35.6455 30.6231C31.2461 30.9446 28.0319 28.0854 26.9446 24.7206C25.7619 21.0581 26.2252 17.6244 28.7739 14.6238C31.1971 11.7733 35.5011 10.9763 38.7091 12.7468C39.2665 13.0534 39.7587 13.4739 40.3539 13.893ZM32.1539 23.1865C32.7791 24.7995 33.9832 25.7605 35.7209 25.9331C37.4171 26.1021 38.7932 25.4752 39.7575 24.0461C40.9402 22.2931 40.8021 19.6515 39.4561 18.0186C37.8139 16.024 34.6273 15.9927 32.9411 17.9523C31.6175 19.4913 31.4481 21.357 32.1539 23.1865Z" />
<path d="M124.4 25.868H130.819V30.1887H112.515V25.868H118.887V5.61551H112.515V1.32164H124.4V25.868Z" />
<path d="M136.666 22.6149C136.862 24.8492 138.806 26.4134 141.01 26.4316C142.515 26.444 144.053 25.9135 144.748 24.51H149.622C149.436 25.0368 149.317 25.5235 149.101 25.9628C147.553 29.1293 144.142 30.7792 140.695 30.6851C135.565 30.5451 131.564 26.4378 131.568 21.2701C131.571 16.2791 135.584 11.9223 140.695 11.8255C143.2 11.7778 145.393 12.659 147.012 14.1962C149.273 16.3433 150.165 19.572 149.902 22.6149H136.666ZM144.639 19.2232C144.5 17.5205 142.579 16.272 141.01 16.2361C139.124 16.193 137.428 17.4434 136.871 19.2232H144.639Z" />
<path d="M111.348 19.0285H105.908C105.908 19.0285 105.086 16.544 102.274 16.544C99.6658 16.6049 98.0782 18.9373 98.0739 21.3489C98.0698 23.6631 99.7754 25.8547 102.192 25.9245C104.074 25.9789 105.346 24.8621 105.949 23.4506H111.384C110.871 27.8116 106.454 30.7124 102.274 30.6642C97.1004 30.6044 92.6629 26.4255 92.6857 21.2085C92.7085 15.9936 97.1347 11.8515 102.274 11.8089C106.52 11.8089 110.97 14.7441 111.348 19.0285Z" />
<path d="M79.6431 16.5957H73.3316V12.2824H85.2109V25.8628H91.5507V30.1924H73.3316V25.8628H79.6431V16.5957Z" />
<path d="M23.6033 12.2801V16.6097H14.4566V30.1614H9V12.2801H23.6033Z" />
<path d="M81.9536 8.01676C79.9311 8.02055 78.3526 6.4664 78.3563 4.47682C78.3601 2.52352 79.9286 0.966895 81.9093 0.950628C83.93 0.934361 85.5241 2.48098 85.5328 4.46431C85.5428 6.4639 83.9811 8.01303 81.9536 8.01676Z" />
<path d="M26.5576 68.5275C26.5576 64.813 29.3698 62.0941 32.7983 62.0941C36.2268 62.0941 39.0389 64.813 39.0389 68.5275C39.0389 72.2421 36.2268 74.961 32.7983 74.961C29.3698 74.961 26.5576 72.2421 26.5576 68.5275ZM23.3988 68.5275C23.3988 73.7356 27.6363 77.9862 32.7983 77.9862C37.9603 77.9862 42.1978 73.7356 42.1978 68.5275C42.1978 63.3195 37.9603 59.0689 32.7983 59.0689C27.6363 59.0689 23.3988 63.3195 23.3988 68.5275Z"  fill-opacity="0.5"/>
<path d="M56.6867 74.961C53.682 74.961 51.7944 73.0463 51.7944 69.7147V59.5284H48.5585V70.0976C48.5585 74.8078 51.987 77.9862 56.6867 77.9862C61.3865 77.9862 64.815 74.8078 64.815 70.1359V59.5284H61.5791V69.7147C61.5791 73.0463 59.6915 74.961 56.6867 74.961Z"  fill-opacity="0.5"/>
<path d="M83.1979 66.3065V77.5267H86.4338V65.5023C86.4338 62.0175 84.1995 59.0689 80.0391 59.0689C77.3425 59.0689 75.3393 60.3709 74.1066 62.3239V59.5284H70.8707V77.5267H74.1066V67.6851C74.1066 64.1237 76.1098 61.9409 78.9604 61.9409C81.6185 61.9409 83.1979 63.5493 83.1979 66.3065Z"  fill-opacity="0.5"/>
<path d="M95.4526 68.5275C95.4526 64.813 98.1877 62.0558 101.77 62.0558C105.276 62.0558 107.934 64.813 107.934 68.5275C107.934 72.2421 105.276 74.9993 101.77 74.9993C98.1877 74.9993 95.4526 72.2421 95.4526 68.5275ZM107.703 48.5939V62.8217C106.586 60.524 103.696 59.0689 101.192 59.0689C96.0304 59.0689 92.2552 63.3578 92.2552 68.5275C92.2552 73.6973 96.0304 77.9862 101.192 77.9862C103.696 77.9862 106.586 76.531 107.703 74.2334V77.5267H110.939V48.5939H107.703Z"  fill-opacity="0.5"/>
<path d="M119.341 68.5275C119.341 64.813 122.076 62.0558 125.659 62.0558C129.164 62.0558 131.822 64.813 131.822 68.5275C131.822 72.2421 129.164 74.9993 125.659 74.9993C122.076 74.9993 119.341 72.2421 119.341 68.5275ZM131.591 59.5284V62.8217C130.474 60.524 127.585 59.0689 125.081 59.0689C119.919 59.0689 116.144 63.3578 116.144 68.5275C116.144 73.6973 119.919 77.9862 125.081 77.9862C127.585 77.9862 130.474 76.531 131.591 74.2334V77.5267H134.827V59.5284H131.591Z"  fill-opacity="0.5"/>
<path d="M138.61 62.3622H146.623V77.5267H149.859V62.3622H157.871V59.5284H149.859V50.8161H146.623V59.5284H138.61V62.3622Z"  fill-opacity="0.5"/>
<path d="M169.514 53.3436C170.901 53.3436 172.057 52.1947 172.057 50.8161C172.057 49.4376 170.901 48.2887 169.514 48.2887C168.128 48.2887 166.972 49.4376 166.972 50.8161C166.972 52.1947 168.128 53.3436 169.514 53.3436ZM160.962 77.5267H178.837V74.6929H171.518V59.5284H160.962V62.3622H168.282V74.6929H160.962V77.5267Z"  fill-opacity="0.5"/>
<path d="M184.777 68.5275C184.777 64.813 187.589 62.0941 191.018 62.0941C194.446 62.0941 197.258 64.813 197.258 68.5275C197.258 72.2421 194.446 74.961 191.018 74.961C187.589 74.961 184.777 72.2421 184.777 68.5275ZM181.618 68.5275C181.618 73.7356 185.856 77.9862 191.018 77.9862C196.18 77.9862 200.417 73.7356 200.417 68.5275C200.417 63.3195 196.18 59.0689 191.018 59.0689C185.856 59.0689 181.618 63.3195 181.618 68.5275Z"  fill-opacity="0.5"/>
<path d="M216.529 66.3065V77.5267H219.765V65.5023C219.765 62.0175 217.53 59.0689 213.37 59.0689C210.673 59.0689 208.67 60.3709 207.437 62.3239V59.5284H204.202V77.5267H207.437V67.6851C207.437 64.1237 209.441 61.9409 212.291 61.9409C214.949 61.9409 216.529 63.5493 216.529 66.3065Z"  fill-opacity="0.5"/>
<path d="M0.423584 62.3023H8.98902V78.6096H12.4481V62.3023H20.9724V59.255H12.4481V53.2839C12.4481 49.0424 14.5895 46.9422 17.7192 46.9422C19.0781 46.9422 19.7782 47.1069 20.9312 47.4363V44.1831C20.2312 43.936 19.1193 43.689 17.8015 43.689C12.7364 43.689 8.98902 47.6834 8.98902 53.1604V59.255H0.423584V62.3023Z"  fill-opacity="0.5"/>
</svg>
