<svg width="386" height="30" viewBox="0 0 386 30" xmlns="http://www.w3.org/2000/svg">
<path d="M54.9766 13.0931V0.438628H60.393V29.3727H54.9766V27.7385C54.8247 27.8123 54.7631 27.826 54.7229 27.8636C52.6915 29.7468 50.2708 30.2198 47.663 29.5879C44.2241 28.7558 42.1549 26.4308 41.3049 23.0911C40.4424 19.7025 41.0224 16.5442 43.3489 13.8226C45.796 10.9597 50.1126 10.1488 53.3381 11.9444C53.8767 12.2435 54.3563 12.6527 54.9766 13.0931ZM55.1561 20.6623C55.1599 19.7376 55.0444 19.0356 54.7631 18.3799C54.1027 16.8396 52.9426 15.8986 51.2576 15.7171C49.6681 15.5457 48.3147 16.0725 47.3554 17.3726C46.2254 18.9042 46.0936 20.6047 46.7377 22.3578C47.6266 24.7766 50.4377 25.8615 52.7341 24.6765C54.4417 23.7968 55.0695 22.2727 55.1561 20.6623Z" />
<path d="M31.8539 13.0733V11.4641H37.2288L37.2928 29.3841L31.8827 29.4179C31.8827 29.4179 31.8827 28.3305 31.8827 27.6948C30.4391 28.8181 29.0336 29.6639 27.1455 29.8033C22.7461 30.1249 19.5319 27.2657 18.4446 23.9008C17.2619 20.2383 17.7252 16.8047 20.2739 13.804C22.6971 10.9536 27.0011 10.1565 30.2091 11.9271C30.7665 12.2336 31.2587 12.6541 31.8539 13.0733ZM23.6539 22.3668C24.2791 23.9797 25.4832 24.9407 27.2209 25.1134C28.9171 25.2823 30.2932 24.6554 31.2575 23.2264C32.4402 21.4733 32.3021 18.8318 30.9561 17.1988C29.3139 15.2042 26.1273 15.173 24.4411 17.1325C23.1175 18.6715 22.9481 20.5373 23.6539 22.3668Z" />
<path d="M115.9 25.0482H122.319V29.3689H104.015V25.0482H110.387V4.79575H104.015V0.50188H115.9V25.0482Z" />
<path d="M128.166 21.7951C128.362 24.0295 130.306 25.5936 132.51 25.6118C134.015 25.6243 135.553 25.0937 136.248 23.6902H141.122C140.936 24.217 140.817 24.7038 140.601 25.143C139.053 28.3096 135.642 29.9595 132.195 29.8654C127.065 29.7253 123.064 25.6181 123.068 20.4503C123.071 15.4594 127.084 11.1025 132.195 11.0057C134.7 10.9581 136.893 11.8392 138.512 13.3764C140.773 15.5235 141.665 18.7522 141.402 21.7951H128.166ZM136.139 18.4035C136 16.7007 134.079 15.4522 132.51 15.4163C130.624 15.3732 128.928 16.6237 128.371 18.4035H136.139Z" />
<path d="M102.848 18.2087H97.408C97.408 18.2087 96.5858 15.7243 93.7739 15.7243C91.1658 15.7851 89.5782 18.1175 89.5739 20.5291C89.5698 22.8434 91.2754 25.035 93.6916 25.1048C95.5738 25.1592 96.8459 24.0424 97.4485 22.6308H102.884C102.371 26.9918 97.954 29.8926 93.7739 29.8444C88.6004 29.7847 84.1629 25.6057 84.1857 20.3887C84.2085 15.1738 88.6347 11.0317 93.7739 10.9891C98.0198 10.9891 102.47 13.9243 102.848 18.2087Z" />
<path d="M71.1431 15.7759H64.8316V11.4626H76.7109V25.0431H83.0507V29.3726H64.8316V25.0431H71.1431V15.7759Z" />
<path d="M15.1033 11.4604V15.7899H5.9566V29.3416H0.5V11.4604H15.1033Z" />
<path d="M73.4536 7.19699C71.4311 7.20079 69.8526 5.64664 69.8563 3.65705C69.8601 1.70376 71.4286 0.147131 73.4093 0.130864C75.43 0.114597 77.0241 1.66121 77.0328 3.64454C77.0428 5.64414 75.4811 7.19326 73.4536 7.19699Z"/>
<path d="M154.555 29.3701H158.022V15.3161H171.082V12.2525H158.022V3.55972H171.12V0.496183H154.555V29.3701Z"  fill-opacity="0.5"/>
<path d="M180.293 20.3709C180.293 16.6564 183.105 13.9375 186.534 13.9375C189.962 13.9375 192.774 16.6564 192.774 20.3709C192.774 24.0854 189.962 26.8043 186.534 26.8043C183.105 26.8043 180.293 24.0854 180.293 20.3709ZM177.134 20.3709C177.134 25.5789 181.372 29.8296 186.534 29.8296C191.696 29.8296 195.933 25.5789 195.933 20.3709C195.933 15.1629 191.696 10.9122 186.534 10.9122C181.372 10.9122 177.134 15.1629 177.134 20.3709Z"  fill-opacity="0.5"/>
<path d="M210.422 26.8043C207.417 26.8043 205.53 24.8896 205.53 21.558V11.3718H202.294V21.941C202.294 26.6512 205.722 29.8296 210.422 29.8296C215.122 29.8296 218.55 26.6512 218.55 21.9793V11.3718H215.314V21.558C215.314 24.8896 213.427 26.8043 210.422 26.8043Z"  fill-opacity="0.5"/>
<path d="M238.933 18.1498V29.3701H242.169V17.3457C242.169 13.8609 239.935 10.9122 235.774 10.9122C233.078 10.9122 231.075 12.2142 229.842 14.1672V11.3718H226.606V29.3701H229.842V19.5284C229.842 15.9671 231.845 13.7843 234.696 13.7843C237.354 13.7843 238.933 15.3926 238.933 18.1498Z"  fill-opacity="0.5"/>
<path d="M251.188 20.3709C251.188 16.6564 253.923 13.8992 257.506 13.8992C261.011 13.8992 263.669 16.6564 263.669 20.3709C263.669 24.0854 261.011 26.8426 257.506 26.8426C253.923 26.8426 251.188 24.0854 251.188 20.3709ZM263.438 0.437211V14.6651C262.321 12.3674 259.432 10.9122 256.928 10.9122C251.766 10.9122 247.991 15.2012 247.991 20.3709C247.991 25.5406 251.766 29.8296 256.928 29.8296C259.432 29.8296 262.321 28.3744 263.438 26.0767V29.3701H266.674V0.437211H263.438Z"  fill-opacity="0.5"/>
<path d="M275.076 20.3709C275.076 16.6564 277.812 13.8992 281.394 13.8992C284.9 13.8992 287.558 16.6564 287.558 20.3709C287.558 24.0854 284.9 26.8426 281.394 26.8426C277.812 26.8426 275.076 24.0854 275.076 20.3709ZM287.327 11.3718V14.6651C286.209 12.3674 283.32 10.9122 280.816 10.9122C275.654 10.9122 271.879 15.2012 271.879 20.3709C271.879 25.5406 275.654 29.8296 280.816 29.8296C283.32 29.8296 286.209 28.3744 287.327 26.0767V29.3701H290.563V11.3718H287.327Z"  fill-opacity="0.5"/>
<path d="M296.345 14.2055H304.358V29.3701H307.594V14.2055H315.607V11.3718H307.594V2.6595H304.358V11.3718H296.345V14.2055Z"  fill-opacity="0.5"/>
<path d="M330.25 5.18692C331.637 5.18692 332.792 4.03809 332.792 2.6595C332.792 1.28091 331.637 0.13208 330.25 0.13208C328.863 0.13208 327.707 1.28091 327.707 2.6595C327.707 4.03809 328.863 5.18692 330.25 5.18692ZM321.698 29.3701H339.572V26.5363H332.253V11.3718H321.698V14.2055H329.017V26.5363H321.698V29.3701Z"  fill-opacity="0.5"/>
<path d="M347.512 20.3709C347.512 16.6564 350.324 13.9375 353.753 13.9375C357.181 13.9375 359.994 16.6564 359.994 20.3709C359.994 24.0854 357.181 26.8043 353.753 26.8043C350.324 26.8043 347.512 24.0854 347.512 20.3709ZM344.353 20.3709C344.353 25.5789 348.591 29.8296 353.753 29.8296C358.915 29.8296 363.152 25.5789 363.152 20.3709C363.152 15.1629 358.915 10.9122 353.753 10.9122C348.591 10.9122 344.353 15.1629 344.353 20.3709Z"  fill-opacity="0.5"/>
<path d="M382.264 18.1498V29.3701H385.5V17.3457C385.5 13.8609 383.266 10.9122 379.105 10.9122C376.409 10.9122 374.406 12.2142 373.173 14.1672V11.3718H369.937V29.3701H373.173V19.5284C373.173 15.9671 375.176 13.7843 378.027 13.7843C380.685 13.7843 382.264 15.3926 382.264 18.1498Z"  fill-opacity="0.5"/>
</svg>
